Coordinates
version=1
nRows=20
nColumns=30
inDegrees=yes

Units are S.I. units (second, meters, Newtons, ...)
Angles are in degrees.

endheader
time	floatyaw	floatroll	floatpitch	floatx	floaty	floatz	pro_sup_l	deviation_l	flexion_l	cmc_flexion_l	cmc_abduction_l	mp_flexion_l	ip_flexion_l	2mcp_flexion_l	2mcp_abduction_l	2pm_flexion_l	2md_flexion_l	3mcp_flexion_l	3mcp_abduction_l	3pm_flexion_l	3md_flexion_l	4mcp_flexion_l	4mcp_abduction_l	4pm_flexion_l	4md_flexion_l	5mcp_flexion_l	5mcp_abduction_l	5pm_flexion_l	5md_flexion_l
0.005000	0.866899	-3.180214	97.472630	0.022106	-0.154302	0.027834	36.156893	-1.702601	-4.546188	17.091048	28.639112	-25.016218	-42.676074	39.075417	3.273477	61.486175	36.167794	41.521921	4.578646	57.410120	34.744061	39.605838	-4.786140	61.302489	40.889128	34.481814	-4.195722	60.273616	37.831245
0.015000	0.866899	-3.180214	97.472630	0.029572	-0.153980	0.030509	33.818338	-1.666092	-3.545894	16.476478	28.856002	-25.159912	-42.797476	40.001771	3.168081	62.050306	36.030400	42.508315	4.632769	58.211674	34.763372	41.048601	-4.746226	61.888676	40.566342	35.306706	-4.232949	61.747382	38.320333
0.025000	0.866899	-3.180214	97.472630	0.036606	-0.153782	0.033204	31.418293	-1.500469	-2.595627	15.380815	28.504195	-25.493736	-42.966450	41.605266	3.342755	63.177468	36.176717	44.019586	4.753595	59.580968	35.129187	42.868876	-4.799407	63.086328	40.588602	36.203520	-4.414977	64.070168	39.120437
0.035000	0.866899	-3.180214	97.472630	0.042990	-0.153648	0.035966	28.809013	-1.256054	-1.808013	13.797486	27.866626	-26.025912	-43.276360	44.041731	3.814273	64.905591	36.693655	46.208282	4.934904	61.680152	36.024617	45.236121	-4.957715	65.070852	41.182160	37.378114	-4.715506	67.146936	40.166836
0.045000	0.866899	-3.180214	97.472630	0.048515	-0.153546	0.038773	25.951568	-1.008075	-1.246937	11.815283	27.288062	-26.723628	-43.785756	47.313410	4.517954	67.093988	37.580856	49.078101	5.155867	64.504804	37.516827	48.202631	-5.200907	67.868811	42.451678	38.996674	-5.078138	70.698941	41.346459
0.055000	0.866899	-3.180214	97.472630	0.053014	-0.153466	0.041533	22.919636	-0.820717	-0.930969	9.600917	27.070642	-27.522918	-44.496566	51.234898	5.319667	69.474922	38.748380	52.473058	5.387448	67.866253	39.522569	51.683862	-5.483359	71.322088	44.334023	41.132895	-5.430248	74.339052	42.529776
0.065000	0.866899	-3.180214	97.472630	0.056395	-0.153409	0.044099	19.863646	-0.711679	-0.840702	7.357012	27.375152	-28.349929	-45.352933	55.449774	6.052535	71.745273	40.042531	56.111462	5.601715	71.433180	41.822129	55.471508	-5.749805	75.107821	46.602406	43.722903	-5.704142	77.686376	43.608733
0.075000	0.866899	-3.180214	97.472630	0.058674	-0.153354	0.046307	16.954143	-0.639555	-0.926504	5.269703	28.167407	-29.143224	-46.261296	59.507530	6.569961	73.661024	41.292819	59.655647	5.780025	74.825210	44.122545	59.278223	-5.953378	78.817339	48.926657	46.556440	-5.859248	80.476656	44.525988
0.085000	0.866899	-3.180214	97.472630	0.059975	-0.153229	0.048028	14.332772	-0.524856	-1.118303	3.469262	29.235619	-29.866460	-47.123368	62.983182	6.795327	75.099428	42.363331	62.795437	5.916048	77.724341	46.147821	62.805190	-6.069129	82.069465	50.971787	49.326449	-5.895287	82.619174	45.280492
0.095000	0.866899	-3.180214	97.472630	0.060513	-0.152903	0.049208	12.092445	-0.293789	-1.338048	2.021148	30.275452	-30.508303	-47.869634	65.595272	6.745186	76.070121	43.187830	65.319185	6.012716	79.957669	47.718152	65.815005	-6.098728	84.612757	52.495790	51.727403	-5.848904	84.176143	45.906533
0.105000	0.866899	-3.180214	97.472630	0.060542	-0.152205	0.049879	10.287814	0.080927	-1.511449	0.943288	31.009690	-31.073908	-48.480533	67.272352	6.513789	76.678769	43.774326	67.152168	6.076233	81.519457	48.784499	68.185889	-6.065910	86.375303	53.405650	53.557106	-5.774879	85.286566	46.441181
0.115000	0.866899	-3.180214	97.472630	0.060315	-0.150984	0.050138	8.955597	0.564875	-1.575787	0.227043	31.293963	-31.574051	-48.985291	68.141673	6.227507	77.065635	44.180342	68.353862	6.111736	82.532954	49.408958	69.926082	-6.005757	87.448649	53.752878	54.769790	-5.721378	86.087178	46.902287
0.125000	0.866899	-3.180214	97.472630	0.060032	-0.149192	0.050102	8.117559	1.078244	-1.485632	-0.157556	31.165180	-32.015749	-49.437117	68.452253	5.993349	77.348006	44.474801	69.078005	6.122898	83.179570	49.710104	71.142610	-5.952466	88.024272	53.682351	55.458794	-5.711301	86.672830	47.288209
0.135000	0.866899	-3.180214	97.472630	0.059825	-0.146947	0.049877	7.754857	1.532403	-1.221022	-0.270566	30.812142	-32.396615	-49.876566	68.472580	5.865450	77.587127	44.706570	69.509982	6.114239	83.629689	49.806666	71.979879	-5.929601	88.316696	53.367765	55.789164	-5.737691	87.100889	47.592351
0.145000	0.866899	-3.180214	97.472630	0.059747	-0.144543	0.049538	7.771984	1.867685	-0.797893	-0.205872	30.480602	-32.704794	-50.303819	68.406743	5.840154	77.785449	44.892529	69.803803	6.093117	83.998578	49.785437	72.558401	-5.945160	88.502949	52.962767	55.921956	-5.773610	87.414175	47.817004
0.155000	0.866899	-3.180214	97.472630	0.059784	-0.142373	0.049140	7.987618	2.075527	-0.272132	-0.074141	30.356548	-32.924890	-50.676573	68.355758	5.874918	77.908085	45.025826	70.042063	6.069282	84.334632	49.698548	72.942324	-5.992104	88.692446	52.577424	55.964229	-5.789814	87.654976	47.976462
0.165000	0.866899	-3.180214	97.472630	0.059880	-0.140802	0.048727	8.177297	2.196721	0.272918	0.030899	30.485924	-33.046856	-50.933944	68.326341	5.917278	77.915871	45.095016	70.232637	6.052074	84.634196	49.577438	73.146020	-6.053524	88.925811	52.273577	55.956576	-5.770311	87.861621	48.090644
0.175000	0.866899	-3.180214	97.472630	0.059956	-0.140034	0.048333	8.154030	2.298601	0.755148	0.061977	30.771591	-33.072585	-51.029967	68.270047	5.929324	77.794981	45.101250	70.337906	6.047108	84.870206	49.446845	73.166410	-6.110240	89.192712	52.069848	55.891139	-5.718206	88.057921	48.177256
0.185000	0.866899	-3.180214	97.472630	0.059941	-0.140050	0.047982	7.839569	2.443387	1.123877	0.024340	31.043261	-33.016738	-50.956305	68.128956	5.898656	77.570242	45.064394	70.316955	6.054604	85.020824	49.330216	73.015499	-6.147812	89.457904	51.952530	55.744150	-5.650594	88.249469	48.248895
0.195000	0.866899	-3.180214	97.472630	0.059792	-0.140638	0.047688	7.282123	2.663012	1.373596	-0.043597	31.153519	-32.902606	-50.744069	67.869342	5.834986	77.297240	45.016537	70.158277	6.070367	85.087509	49.247807	72.733996	-6.160415	89.686889	51.891321	55.506143	-5.587602	88.430807	48.315004
